# xmcd
#
# Track frame offsets:
#	150
#	15450
#	36894
#	48198
#	70715
#	88656
#	106977
#	125636
#	137016
#	151590
#	163995
#
# Disc length: 2420 seconds
#
# Revision: 1
# Processed by: cddbd v1.5.2PL0 Copyright (c) Steve Scherf et al.
# Submitted via: audiograbber 1.83.01
#
DISCID=8609720b
DTITLE=Owen Campbell - The Pilgrim
DYEAR=2013
DGENRE=Blues
TTITLE0=Wreckin Ball
TTITLE1=Leave it Alone
TTITLE2=You Know I'm Gone
TTITLE3=Cried For Yesterday
TTITLE4=It Don't Mean a Thing
TTITLE5=Dev'lish Woman
TTITLE6=Remember to Breathe
TTITLE7=Bukhu's Blues
TTITLE8=New Years Eve
TTITLE9=Highway Bound
TTITLE10=A Better Place
EXTD=
EXTT0=
EXTT1=
EXTT2=
EXTT3=
EXTT4=
EXTT5=
EXTT6=
EXTT7=
EXTT8=
EXTT9=
EXTT10=
PLAYORDER=
